<svg width="54" height="27" viewBox="0 0 54 27" fill="none" xmlns="http://www.w3.org/2000/svg">
<path d="M52.8749 0.5625H1.12503C0.504034 0.5625 0 1.06653 0 1.68753C0 2.30853 0.504034 2.81257 1.12503 2.81257H52.875C53.496 2.81257 54 2.30853 54 1.68753C54 1.06653 53.4959 0.5625 52.8749 0.5625Z" fill="white"/>
<path d="M52.8749 12.2832H1.12503C0.504034 12.2832 0 12.7872 0 13.4082C0 14.0292 0.504034 14.5333 1.12503 14.5333H52.875C53.496 14.5333 54 14.0292 54 13.4082C54 12.7872 53.4959 12.2832 52.8749 12.2832Z" fill="white"/>
<path d="M52.8749 24.0029H1.12503C0.504034 24.0029 0 24.5069 0 25.1279C0 25.7489 0.504034 26.2529 1.12503 26.2529H52.875C53.496 26.2529 54 25.7489 54 25.1279C53.9999 24.5069 53.4959 24.0029 52.8749 24.0029Z" fill="white"/>
</svg>
